<svg height="512pt" viewBox="0 0 512 512" width="512pt" xmlns="http://www.w3.org/2000/svg"><path d="m308.277344 203.722656c-9.902344-9.902344-23.085938-15.355468-37.121094-15.355468-14.039062 0-27.222656 5.453124-37.125 15.355468l-53.03125 53.03125c-20.472656 20.472656-20.472656 53.777344 0 74.246094 9.902344 9.902344 23.085938 15.355469 37.121094 15.355469 14.039062 0 27.222656-5.453125 37.125-15.355469l53.03125-53.03125c20.46875-20.46875 20.46875-53.777344 0-74.246094zm-10.605469 63.640625-53.03125 53.03125c-7.070313 7.070313-16.488281 10.960938-26.519531 10.960938s-19.445313-3.890625-26.515625-10.960938c-14.621094-14.621093-14.621094-38.410156 0-53.03125l53.03125-53.035156c7.070312-7.066406 16.488281-10.960937 26.519531-10.960937s19.445312 3.894531 26.515625 10.960937c14.621094 14.621094 14.621094 38.410156 0 53.035156zm0 0"/><path d="m271.15625 218.351562c-6.015625 0-11.667969 2.339844-15.910156 6.582032l-42.421875 42.421875c-.011719.011719-10.613281 10.613281-10.613281 10.613281-4.242188 4.246094-6.582032 9.894531-6.582032 15.910156 0 6.011719 2.339844 11.664063 6.582032 15.910156 4.246093 4.242188 9.898437 6.582032 15.910156 6.582032 6.015625 0 11.664062-2.339844 15.910156-6.582032l10.597656-10.597656c.019532-.019531 42.4375-42.4375 42.4375-42.4375 8.773438-8.769531 8.773438-23.046875 0-31.820312-4.246094-4.242188-9.898437-6.582032-15.910156-6.582032zm-53.035156 83.019532c-2.007813 0-3.890625-.777344-5.300782-2.1875-1.414062-1.414063-2.191406-3.296875-2.191406-5.304688 0-2.007812.777344-3.890625 2.191406-5.304687l10.605469-10.601563c2.925781-2.925781 7.683594-2.925781 10.605469-.003906 2.921875 2.925781 2.921875 7.679688.003906 10.605469l-10.609375 10.609375c-1.414062 1.410156-3.296875 2.1875-5.304687 2.1875zm58.335937-55.222656-27.445312 27.445312c-1.070313-2.253906-2.511719-4.371094-4.375-6.234375-1.859375-1.859375-3.980469-3.300781-6.230469-4.375l27.445312-27.445313c1.410157-1.410156 3.292969-2.1875 5.300782-2.1875 2.007812 0 3.894531.777344 5.304687 2.1875 2.925781 2.925782 2.925781 7.6875 0 10.609376zm0 0"/><path d="m504.5 169.707031h-13.714844v-21.214843h-21.210937v-13.710938c0-4.144531-3.359375-7.5-7.5-7.5h-13.714844v-13.714844c0-4.140625-3.355469-7.5-7.5-7.5h-13.710937v-13.714844c0-4.140624-3.359376-7.5-7.5-7.5h-13.714844v-13.710937c0-4.144531-3.359375-7.5-7.5-7.5h-13.710938v-13.714844c0-4.140625-3.359375-7.5-7.5-7.5h-13.714844v-13.710937c0-4.144532-3.359374-7.5-7.5-7.5h-13.710937v-13.714844c0-4.140625-3.359375-7.5-7.5-7.5h-21.214844c-1.988281 0-3.898437.789062-5.304687 2.195312l-106.066406 106.066407c-8.769532 8.773437-8.769532 23.046875 0 31.820312l5.304687 5.304688-68.945313 68.941406c-17.222656 17.226563-28.230468 39.398437-31.835937 64.117187-1.132813 7.773438-4.777344 14.925782-10.539063 20.6875l-72.03125 72.03125c-15.582031 15.582032-24.164062 36.300782-24.164062 58.335938s8.582031 42.753906 24.164062 58.335938c15.582032 15.582031 36.300782 24.164062 58.335938 24.164062s42.753906-8.582031 58.335938-24.164062l72.03125-72.03125c5.761718-5.761719 12.914062-9.40625 20.6875-10.539063 24.71875-3.601563 46.890624-14.613281 64.117187-31.835937l68.941406-68.945313 5.304688 5.304687c8.773437 8.773438 23.046875 8.773438 31.820312 0l106.066407-106.066406c1.40625-1.40625 2.195312-3.3125 2.195312-5.300781v-21.214844c0-4.144531-3.359375-7.5-7.5-7.5zm-28.714844 4.390625-45.53125 45.535156-10.605468-10.609374 45.53125-45.53125h10.605468zm-21.210937-21.210937-45.535157 45.53125-10.605468-10.605469 45.535156-45.535156h10.605469zm-21.214844-21.214844-45.53125 45.535156-10.609375-10.609375 45.535156-45.53125h10.605469zm-21.210937-21.210937-45.535157 45.53125-10.605469-10.605469 45.53125-45.535157h10.609376zm-21.214844-21.214844-45.53125 45.53125-10.609375-10.605469 45.535156-45.53125h10.605469zm-21.210938-21.214844-45.535156 45.535156-10.605469-10.605468 45.53125-45.535157h10.605469v10.605469zm-21.214844-21.210938-45.53125 45.53125-10.609374-10.605468 45.535156-45.53125h10.605468zm-31.820312-31.820312h10.609375v10.605469l-45.535156 45.535156-10.605469-10.609375zm-103.871094 103.867188 47.730469-47.726563 10.609375 10.605469-53.035156 53.03125-5.300782-5.300782c-2.925781-2.925781-2.925781-7.683593-.003906-10.609374zm74.25 243.953124c-14.925781 14.925782-34.175781 24.46875-55.675781 27.601563-10.992187 1.601563-21.066406 6.714844-29.128906 14.777344l-72.03125 72.03125c-12.75 12.75-29.699219 19.769531-47.730469 19.769531s-34.980469-7.019531-47.730469-19.769531c-12.746093-12.75-19.769531-29.699219-19.769531-47.730469s7.019531-34.980469 19.769531-47.730469l72.03125-72.03125c8.066407-8.0625 13.175781-18.136719 14.777344-29.128906 3.132813-21.5 12.679687-40.75 27.601563-55.675781l100.761718-100.761719 15.910156 15.910156c1.464844 1.464844 3.386719 2.195313 5.304688 2.195313s3.839844-.730469 5.304688-2.195313c2.925781-2.929687 2.925781-7.679687 0-10.605469l-15.910157-15.910156 21.210938-21.214844 137.886719 137.886719-21.214844 21.214844-100.761719-100.765625c-2.929687-2.925781-7.679687-2.925781-10.605469 0-2.929687 2.929688-2.929687 7.679688 0 10.609375l100.761719 100.761719zm106.066406-63.636718c-2.925781 2.921875-7.683593 2.921875-10.609374 0l-5.300782-5.304688 26.511719-26.515625c.003906-.003906 26.519531-26.519531 26.519531-26.519531l10.605469 10.609375zm103.867188-103.871094-45.53125 45.535156-10.609375-10.609375 45.535156-45.53125h10.605469zm0 0"/></svg>